<svg aria-hidden="true" xmlns="http://www.w3.org/2000/svg"  viewBox="0 0 48 48" width="48px" height="48px" baseProfile="basic">
  <symbol id="disney">
    <radialGradient id="61BnZA7zWz8h3PPZepZwra" cx="3.795" cy="-13.73" r="83.425" gradientUnits="userSpaceOnUse">
    <stop offset="0" stop-color="#23d9d6"/>
    <stop offset=".159" stop-color="#22c7da"/>
    <stop offset=".479" stop-color="#1e97e6"/>
    <stop offset=".927" stop-color="#194bf8"/>
    <stop offset="1" stop-color="#183efb"/>
    </radialGradient>
    <path fill="url(#61BnZA7zWz8h3PPZepZwra)" d="M13.714,42C9.46,42,6,38.54,6,34.286V13.714C6,9.46,9.46,6,13.714,6h20.571	C38.54,6,42,9.46,42,13.714v20.571C42,38.54,38.54,42,34.286,42H13.714z"/><path fill="#fff" d="M15.445,20.679c-2.644-1.289-3.57-1.454-5.619-1.322s-2.049,1.157-1.554,1.19 C8.768,20.58,8.9,20.613,8.9,20.613l0.1-0.23l-0.595-0.264c0,0,2.578-0.661,5.784,0.892s4.032,3.57,3.14,4.561 c-0.892,0.991-2.446,1.487-4.362,1.058C12.934,25.274,13,24.283,13,24.283s1.785-0.066,2.248,0.264s0.066,0.528-0.231,0.628 c0.43,0.264,0.76,0.364,1.058,0c0.297-0.364,0.628-1.917-3.007-1.818c-0.068-0.628,0.131-1.058-0.398-1.686 c-0.528-0.628-0.528,1.719-0.528,1.719s-1.355,0.198-2.479,0.991s2.313,2.71,2.313,2.71s0.066,0.86,0.562,0.958 C13.033,28.148,13,27.421,13,27.421s2.974,0.86,4.958-0.892C19.94,24.778,18.089,21.968,15.445,20.679z M12.008,26.397 c0,0-1.124-0.463-1.752-1.025s-0.43-0.661-0.132-0.727c0.297-0.066,1.454-0.364,1.95-0.364L12.008,26.397z"/><path fill="#fff" d="M19.246,23.555c0,0-0.166,1.917-0.099,3.107c0.033,0.496,0.827,0.595,0.827,0.099 c0-0.496-0.033-2.479-0.099-2.876C19.807,23.489,19.444,23.158,19.246,23.555z"/><path fill="#fff" d="M23.741,23.323c0,0-1.818-0.397-3.04,0.397c-0.595,0.397-0.43,1.124-0.099,1.157 c0.33,0.033,2.016,0.099,2.413,0.364s0.496,0.463,0.066,0.727s-1.388,0.397-1.785,0.264c-0.397-0.132-0.528-0.827,0.198-0.463 c0.727,0.364,2.049-0.066,1.157-0.364c-0.892-0.297-1.619-0.231-2.082,0.099c-0.463,0.33,0.166,1.025,0.694,1.256 s1.521,0.297,2.115-0.066c0.595-0.364,0.892-1.752-0.066-1.983s-1.554-0.198-1.983-0.264c-0.43-0.066-0.231-0.231,0.463-0.297 s1.19-0.099,1.785-0.198C24.17,23.852,24.203,23.423,23.741,23.323z"/><path fill="#fff" d="M26.187,23.819c0.066,0.297,0.33,1.421,0.33,1.884c-0.33-0.496-0.86-1.487-1.322-1.95 c-0.463-0.463-0.595-0.066-0.595-0.066s-0.463,1.685-0.33,2.776c0.132,1.091,0.694,0.33,0.727,0 c0.033-0.33,0.099-1.421,0.099-1.719c0.297,0.661,0.76,1.421,1.124,1.785s0.727,0.132,0.86-0.198 c0.132-0.33,0.562-2.115-0.463-3.305C25.593,21.838,26.12,23.522,26.187,23.819z"/><path fill="#fff" d="M29.722,25.835c-0.364,0.033-1.421,0.198-1.421,0.198l0.231-0.694c0,0,0.694,0.033,1.256-0.033 s0.166-0.694-0.033-0.694c-0.198,0-0.925,0-0.925,0l0.166-0.463c0,0,1.223-0.033,1.619-0.099c0.397-0.066-0.231-0.727-0.694-0.76 s-1.454,0.099-2.115,0.231s0.43,0.628,0.43,0.628s-0.099,0.33-0.231,0.562c-0.397,0.066-0.364,0.297-0.231,0.595 C27.51,26,27.377,26.86,28.138,27.124c0.76,0.264,1.652-0.43,2.016-0.727C30.516,26.098,30.086,25.802,29.722,25.835z"/><path fill="#fff" d="M32.532,23.886c-0.496,0.496-1.355,1.785-1.355,1.785c0.099-0.86,0.33-1.091,0.86-1.95 c0.452-0.734-0.264-0.463-0.264-0.463s-1.685,1.421-0.958,3.04c-0.496,1.223-1.289,2.974-0.132,3.9 c0.297,0.198,0.198-0.397,0.297-0.727s0.43-2.016,0.76-2.479c0.793-0.066,2.215-0.364,2.446-2.512 C34.283,23.092,33.028,23.389,32.532,23.886z M33.556,24.976c-0.33,0.892-1.454,1.025-1.454,1.025s0.727-1.19,1.091-1.521 C33.556,24.15,33.887,24.084,33.556,24.976z"/><path fill="#fff" d="M21.262,21.968c0.661-0.661,0.958-1.884-0.198-1.818c0,0-0.43-0.562-1.355-0.297 c-0.925,0.264-2.082,1.487-1.256,2.28c0,0.364,0.099,1.058,0.595,0.43C19.576,22.795,20.601,22.629,21.262,21.968z M18.75,21.605 c-0.099-0.496,0.166-0.958,1.025-1.124C19.774,20.482,18.882,21.208,18.75,21.605z M20.733,20.779 c0.925-0.364,0.628,0.528,0.132,0.892s-0.991,0.463-1.586,0.297C19.279,21.968,19.807,21.142,20.733,20.779z"/><path fill="#fff" d="M39.89,24.282h-1.989c-0.041-0.658-0.12-1.359-0.266-2.02c-0.008-0.037-0.039-0.066-0.076-0.068 c-0.218-0.017-0.257-0.005-0.523,0.001c-0.073,0.002-0.124,0.071-0.105,0.141c0.082,0.304,0.162,1.08,0.202,1.945h-1.889 c-0.058,0-0.107,0.048-0.11,0.105l-0.05,0.501c-0.004,0.08,0.065,0.146,0.145,0.137l1.928,0.007c0.011,0.71-0.01,1.409-0.083,1.904 c-0.007,0.05,0.032,0.092,0.082,0.095c0.303,0.018,0.534,0.024,0.649,0.026c0.046,0.001,0.084-0.034,0.088-0.08 c0.018-0.241,0.063-0.997,0.041-1.942l1.957,0.007c0.061,0,0.11-0.049,0.11-0.111v-0.54C40.001,24.332,39.951,24.282,39.89,24.282z"/><path fill="#fff" d="M24.488,12c-0.759,0-1.496,0.084-2.222,0.205v0c-1.925,0.321-3.706,1.044-5.266,2.088 c-1.495,1-2.792,2.274-3.79,3.772c0.349,0.076,0.687,0.17,1.018,0.272c0.766-1.085,1.71-2.03,2.772-2.825 c1.527-1.143,3.317-1.94,5.267-2.291v0C22.991,13.09,23.727,13,24.488,13c5.267,0,9.78,3.261,11.645,7.867h1.064 C35.28,15.699,30.315,12,24.488,12z"/>
  </symbol>
  <symbol id="apple">
    <path fill="#455A64" d="M42,37c0,2.762-2.238,5-5,5H11c-2.762,0-5-2.238-5-5V11c0-2.762,2.238-5,5-5h26c2.762,0,5,2.238,5,5V37z"/><path fill="#80D8FF" d="M15.869 18.839c.397-.458 1.033-.764 1.589-.839.08.61-.158 1.22-.476 1.603-.397.456-.954.762-1.589.762C15.234 19.831 15.473 19.296 15.869 18.839zM19.285 26.54c-.477.612-1.111 1.452-1.827 1.452-.714 0-.873-.459-1.747-.382-.953 0-1.111.457-1.826.382-.795 0-1.351-.688-1.748-1.374-1.191-1.754-1.35-3.891-.555-5.034.555-.764 1.35-1.22 2.144-1.22s1.351.456 1.985.456c.636 0 1.033-.456 1.986-.456.714 0 1.43.381 1.985.992-1.747.914-1.431 3.278.317 3.966C19.683 25.856 19.523 26.084 19.285 26.54zM25.521 18v1.839h2.196V21h-2.196v4.279c0 .961.254 1.52 1.184 1.52.422 0 .675 0 .844-.08l.085 1.121C27.38 27.919 26.873 28 26.281 28c-.676 0-1.267-.24-1.689-.641C24.17 26.879 24 26.24 24 25.279V21h-1.268v-1.161H24v-1.439L25.521 18zM30.604 20l1.69 4.479c.254.722.508 1.361.676 2.08h.084c.17-.639.423-1.279.677-2.08L35.338 20h1.604l-3.294 8h-1.437L29 20H30.604z"/>
  </symbol>
  <symbol id="prime">
    <linearGradient id="SzbnDW2eD0FmObEe0gqGxa" x1="39.88" x2="9.652" y1="8.12" y2="38.349" gradientUnits="userSpaceOnUse"><stop offset="0" stop-color="#46cdef"/><stop offset="1" stop-color="#012962"/></linearGradient><path fill="url(#SzbnDW2eD0FmObEe0gqGxa)" d="M35,42H13c-3.866,0-7-3.134-7-7V13c0-3.866,3.134-7,7-7h22c3.866,0,7,3.134,7,7v22	C42,38.866,38.866,42,35,42z"/><path fill="#fff" d="M28.018,14.651c0.154-0.092,0.313-0.191,0.48-0.277c0.431-0.221,0.91-0.332,1.397-0.308	c0.351,0.019,0.671,0.117,0.917,0.375c0.234,0.24,0.32,0.535,0.345,0.855c0.006,0.068,0.006,0.135,0.006,0.209v3.186	c0,0.277-0.037,0.313-0.313,0.313H30.1c-0.049,0-0.098,0-0.148-0.006c-0.073-0.006-0.135-0.068-0.148-0.141	c-0.013-0.068-0.013-0.135-0.013-0.203v-2.849c0.006-0.117-0.006-0.227-0.037-0.338c-0.049-0.191-0.221-0.326-0.418-0.338	c-0.363-0.024-0.726,0.049-1.058,0.203c-0.049,0.013-0.08,0.062-0.073,0.111v3.236c0,0.062,0,0.117-0.013,0.178	c0,0.086-0.068,0.148-0.154,0.148l0,0c-0.092,0.006-0.184,0.006-0.283,0.006h-0.652c-0.227,0-0.277-0.056-0.277-0.283v-2.91	c0-0.105-0.006-0.216-0.03-0.32c-0.043-0.209-0.221-0.357-0.431-0.369c-0.369-0.024-0.744,0.049-1.077,0.209	c-0.049,0.013-0.08,0.068-0.068,0.117v3.279c0,0.227-0.049,0.277-0.277,0.277h-0.825c-0.216,0-0.27-0.062-0.27-0.27v-4.27	c0-0.049,0.006-0.098,0.019-0.148c0.024-0.073,0.098-0.117,0.172-0.117h0.769c0.111,0,0.178,0.068,0.216,0.172	c0.03,0.086,0.049,0.167,0.08,0.259c0.062,0,0.098-0.043,0.141-0.068c0.338-0.209,0.695-0.388,1.095-0.461	c0.308-0.062,0.615-0.062,0.923,0c0.289,0.062,0.548,0.234,0.714,0.48c0.013,0.019,0.024,0.03,0.037,0.043	C28.006,14.638,28.012,14.638,28.018,14.651z M18.926,14.885c0.043-0.013,0.08-0.037,0.105-0.073	c0.111-0.111,0.227-0.216,0.351-0.313c0.32-0.246,0.72-0.369,1.12-0.338c0.16,0.006,0.216,0.056,0.227,0.209	c0.013,0.209,0.006,0.424,0.006,0.634c0.006,0.086,0,0.167-0.013,0.252c-0.024,0.111-0.068,0.154-0.178,0.167	c-0.086,0.006-0.167,0-0.252-0.006c-0.412-0.037-0.812,0.043-1.2,0.172c-0.086,0.03-0.086,0.092-0.086,0.16V18.7	c0,0.056,0,0.105-0.006,0.16c-0.006,0.08-0.068,0.141-0.148,0.141c-0.043,0.006-0.092,0.006-0.135,0.006h-0.8	c-0.043,0-0.092,0-0.135-0.006c-0.08-0.006-0.141-0.073-0.148-0.154c-0.006-0.049-0.006-0.098-0.006-0.148v-4.184	c0-0.283,0.03-0.313,0.313-0.313h0.591c0.16,0,0.234,0.056,0.277,0.209C18.852,14.565,18.889,14.719,18.926,14.885z M21.325,16.595	v-2.184c0.006-0.148,0.062-0.203,0.209-0.209c0.32-0.006,0.64-0.006,0.96,0c0.141,0,0.184,0.043,0.197,0.184	c0.006,0.056,0.006,0.105,0.006,0.16v4.097c0,0.068-0.006,0.135-0.013,0.203c-0.006,0.08-0.068,0.135-0.148,0.141	c-0.037,0.006-0.068,0.006-0.105,0.006h-0.855c-0.03,0-0.056,0-0.086-0.006c-0.086-0.006-0.16-0.073-0.167-0.16	c-0.006-0.049-0.006-0.098-0.006-0.148C21.325,17.997,21.325,17.296,21.325,16.595z M22.039,11.999	c0.098-0.006,0.197,0.013,0.289,0.043c0.332,0.111,0.504,0.4,0.474,0.775c-0.024,0.32-0.264,0.578-0.585,0.628	c-0.135,0.024-0.277,0.024-0.412,0c-0.351-0.068-0.609-0.326-0.585-0.769C21.257,12.239,21.546,11.999,22.039,11.999z M16.717,16.091c-0.024-0.32-0.111-0.634-0.24-0.923c-0.252-0.529-0.64-0.917-1.23-1.052c-0.677-0.148-1.286,0-1.84,0.412	c-0.037,0.037-0.08,0.068-0.129,0.092c-0.013-0.006-0.024-0.013-0.024-0.019c-0.019-0.062-0.03-0.123-0.049-0.184	c-0.049-0.154-0.111-0.209-0.277-0.209c-0.184,0-0.375,0.006-0.56,0c-0.141-0.006-0.27,0.013-0.369,0.123	c0,2.153,0,4.313,0.006,6.459c0.08,0.129,0.203,0.154,0.345,0.148c0.221-0.006,0.443,0,0.664,0c0.388,0,0.388,0,0.388-0.381v-1.753	c0-0.043-0.019-0.092,0.024-0.129c0.308,0.24,0.683,0.388,1.071,0.424c0.542,0.056,1.033-0.08,1.446-0.449	c0.302-0.277,0.523-0.634,0.64-1.028C16.749,17.118,16.76,16.607,16.717,16.091z M15.247,17.364	c-0.043,0.191-0.141,0.363-0.283,0.492c-0.16,0.135-0.357,0.216-0.566,0.216c-0.313,0.019-0.621-0.049-0.898-0.197	c-0.068-0.03-0.111-0.098-0.105-0.172v-1.114c0-0.369,0.006-0.739,0-1.107c-0.006-0.086,0.043-0.16,0.123-0.191	c0.338-0.16,0.689-0.234,1.058-0.16c0.259,0.037,0.48,0.203,0.585,0.443c0.092,0.197,0.148,0.412,0.16,0.628	C15.358,16.595,15.358,16.989,15.247,17.364z M33.408,16.995c0.461,0.086,0.935,0.092,1.397,0.019	c0.27-0.037,0.529-0.117,0.769-0.246c0.277-0.16,0.48-0.381,0.566-0.689c0.216-0.775-0.117-1.557-0.923-1.845	c-0.394-0.129-0.812-0.172-1.224-0.117c-0.972,0.111-1.605,0.646-1.894,1.575c-0.203,0.634-0.178,1.279-0.013,1.919	c0.216,0.818,0.757,1.304,1.575,1.476c0.467,0.105,0.941,0.086,1.409,0.013c0.246-0.043,0.492-0.105,0.726-0.197	c0.141-0.056,0.216-0.141,0.209-0.302c-0.006-0.148,0-0.302,0-0.455c0-0.184-0.073-0.24-0.252-0.197	c-0.179,0.043-0.351,0.08-0.529,0.117c-0.381,0.08-0.775,0.08-1.157,0.013c-0.523-0.105-0.861-0.553-0.831-1.107	C33.291,16.977,33.352,16.982,33.408,16.995z M33.254,16.054c0.019-0.148,0.062-0.289,0.117-0.424	c0.184-0.449,0.572-0.603,0.966-0.578c0.111,0.006,0.221,0.03,0.326,0.073c0.16,0.068,0.264,0.216,0.283,0.388	c0.019,0.105,0.013,0.216-0.019,0.32c-0.073,0.221-0.252,0.313-0.467,0.357c-0.129,0.03-0.264,0.043-0.4,0.03	c-0.24,0-0.486-0.019-0.726-0.056C33.241,16.152,33.241,16.152,33.254,16.054z"/><path fill="#fff" d="M14.322,27.167c0.039-0.132,0.079-0.258,0.119-0.389c0.303-1.023,0.607-2.039,0.91-3.063l0.039-0.119	c0.033-0.119,0.145-0.192,0.264-0.192h1.004c0.251,0,0.303,0.073,0.218,0.311l-0.396,1.049c-0.442,1.149-0.885,2.304-1.327,3.452	c-0.013,0.039-0.033,0.079-0.047,0.119c-0.047,0.139-0.184,0.231-0.33,0.218c-0.29-0.006-0.581-0.006-0.871,0	c-0.205,0.006-0.323-0.086-0.396-0.27c-0.165-0.436-0.337-0.878-0.501-1.313c-0.396-1.037-0.799-2.073-1.195-3.116	c-0.039-0.079-0.066-0.172-0.086-0.258c-0.02-0.132,0.026-0.198,0.158-0.198c0.376-0.006,0.753,0,1.122,0	c0.158,0,0.231,0.106,0.27,0.244c0.073,0.251,0.145,0.509,0.225,0.759c0.27,0.918,0.534,1.842,0.806,2.759	C14.302,27.167,14.309,27.167,14.322,27.167z M18.996,25.979v2.376c-0.013,0.132-0.073,0.192-0.205,0.198	c-0.356,0.006-0.706,0.006-1.063,0c-0.132,0-0.192-0.066-0.205-0.192c-0.006-0.039-0.006-0.086-0.006-0.125v-4.568	c0.006-0.205,0.059-0.264,0.264-0.264h0.951c0.205,0,0.264,0.059,0.264,0.264V25.979L18.996,25.979z M18.263,21.034	c0.132-0.013,0.264,0.013,0.389,0.066c0.258,0.099,0.436,0.337,0.449,0.614c0.053,0.601-0.35,0.904-0.885,0.891	c-0.073,0-0.145-0.013-0.218-0.026c-0.409-0.099-0.62-0.416-0.581-0.871c0.033-0.363,0.317-0.634,0.706-0.667	C18.17,21.034,18.217,21.028,18.263,21.034z M36.27,25.596c0.006-0.075-0.02-0.231-0.02-0.237c-0.013-0.125-0.039-0.251-0.073-0.37	c-0.244-0.871-0.792-1.446-1.683-1.67c-0.416-0.099-0.838-0.112-1.261-0.047c-0.891,0.132-1.532,0.607-1.842,1.452	c-0.303,0.806-0.297,1.69,0.006,2.495c0.264,0.732,0.792,1.195,1.552,1.386c0.403,0.099,0.825,0.125,1.241,0.066	c1.386-0.165,1.961-1.215,2.053-2.125c0,0,0.033-0.274,0.033-0.399L36.27,25.596z M34.686,26.823	c-0.039,0.139-0.099,0.264-0.184,0.383c-0.145,0.205-0.376,0.337-0.627,0.356c-0.125,0.013-0.251,0.013-0.376-0.013	c-0.278-0.053-0.509-0.237-0.62-0.495c-0.099-0.205-0.158-0.429-0.178-0.654c-0.033-0.389-0.039-0.779,0.053-1.162	c0.033-0.152,0.099-0.303,0.178-0.436c0.145-0.237,0.396-0.389,0.673-0.409c0.125-0.013,0.251-0.013,0.376,0.013	c0.264,0.053,0.482,0.225,0.601,0.468c0.112,0.231,0.178,0.489,0.192,0.746c0.006,0.119,0.013,0.237,0.006,0.356	C34.798,26.269,34.765,26.553,34.686,26.823z M24.699,21.081h-0.918c-0.251,0-0.297,0.047-0.297,0.297v2.139	c0,0.047,0.02,0.092-0.013,0.139c-0.059-0.006-0.092-0.047-0.139-0.073c-0.687-0.403-1.406-0.475-2.133-0.139	c-0.509,0.237-0.825,0.667-1.03,1.175c-0.198,0.489-0.244,1.004-0.231,1.525c0,0.489,0.112,0.97,0.33,1.406	c0.251,0.482,0.614,0.851,1.142,1.01c0.72,0.225,1.393,0.112,2.006-0.343c0.047-0.026,0.073-0.073,0.132-0.086	c0.033,0.073,0.059,0.152,0.073,0.231c0.026,0.106,0.119,0.178,0.231,0.178h0.158c0.237,0,0.468,0.006,0.7,0	c0.184,0,0.237-0.059,0.244-0.251v-6.957C24.949,21.127,24.897,21.081,24.699,21.081z M23.491,25.939v1.201	c0.013,0.079-0.033,0.152-0.106,0.184c-0.317,0.178-0.68,0.251-1.037,0.198c-0.303-0.033-0.568-0.218-0.706-0.489	c-0.106-0.211-0.165-0.436-0.184-0.667c-0.053-0.416-0.02-0.838,0.079-1.241c0.033-0.112,0.073-0.218,0.132-0.323	c0.139-0.258,0.403-0.423,0.693-0.442c0.35-0.033,0.7,0.033,1.016,0.178c0.079,0.026,0.125,0.106,0.119,0.192	C23.484,25.14,23.491,25.537,23.491,25.939L23.491,25.939z M28.685,26.461c0.383-0.026,0.765-0.099,1.109-0.284	c0.35-0.172,0.594-0.495,0.667-0.878c0.047-0.237,0.047-0.489-0.006-0.726c-0.139-0.594-0.515-0.963-1.082-1.155	c-0.317-0.099-0.654-0.139-0.984-0.125c-1.109,0.026-1.953,0.587-2.297,1.697c-0.231,0.732-0.198,1.479,0.026,2.211	c0.231,0.753,0.759,1.208,1.511,1.413c0.323,0.079,0.66,0.112,0.99,0.099c0.482-0.006,0.963-0.099,1.419-0.27	c0.192-0.073,0.237-0.139,0.237-0.343v-0.475c-0.006-0.192-0.086-0.258-0.278-0.211c-0.145,0.039-0.284,0.073-0.429,0.106	c-0.442,0.106-0.904,0.125-1.354,0.047c-0.449-0.086-0.753-0.343-0.871-0.792c-0.033-0.132-0.059-0.264-0.073-0.403	c0.033,0,0.066,0,0.092,0.013C27.801,26.461,28.243,26.494,28.685,26.461z M27.306,25.404c0.047-0.258,0.106-0.509,0.264-0.72	c0.244-0.323,0.581-0.416,0.963-0.376c0.033,0,0.059,0.013,0.092,0.013c0.462,0.073,0.574,0.442,0.489,0.799	c-0.066,0.264-0.284,0.363-0.528,0.409c-0.132,0.026-0.27,0.039-0.409,0.033c-0.27-0.006-0.534-0.026-0.799-0.066	C27.319,25.49,27.293,25.464,27.306,25.404L27.306,25.404z"/><path fill="#fff" d="M24.374,35.998c-0.231-0.006-0.463-0.006-0.693,0c-0.318-0.017-0.636-0.029-0.954-0.052	c-0.844-0.064-1.683-0.191-2.503-0.382c-2.839-0.659-5.331-1.983-7.505-3.908c-0.203-0.18-0.393-0.364-0.59-0.55	c-0.046-0.041-0.087-0.099-0.11-0.156c-0.035-0.081-0.017-0.168,0.041-0.231c0.058-0.063,0.151-0.087,0.231-0.052	c0.052,0.023,0.104,0.046,0.151,0.075c2.076,1.284,4.342,2.22,6.718,2.775c0.798,0.185,1.601,0.329,2.411,0.434	c1.162,0.145,2.335,0.197,3.503,0.156c0.63-0.017,1.255-0.075,1.879-0.156c1.457-0.185,2.897-0.515,4.29-0.977	c0.734-0.242,1.451-0.521,2.151-0.844c0.104-0.058,0.231-0.075,0.347-0.046c0.191,0.046,0.306,0.242,0.26,0.434	c-0.006,0.023-0.017,0.052-0.029,0.075c-0.046,0.087-0.11,0.162-0.191,0.219c-0.665,0.521-1.382,0.977-2.139,1.359	c-1.428,0.722-2.955,1.237-4.527,1.532C26.207,35.865,25.294,35.963,24.374,35.998z M34.313,30.361	c0.382,0.012,0.757,0.035,1.127,0.133c0.104,0.029,0.203,0.064,0.3,0.11c0.133,0.052,0.219,0.18,0.237,0.318	c0.023,0.162,0.029,0.329,0.017,0.497c-0.075,0.989-0.382,1.942-0.891,2.792c-0.185,0.306-0.41,0.584-0.67,0.827	c-0.052,0.052-0.116,0.093-0.185,0.116c-0.11,0.029-0.18-0.029-0.185-0.139c0.006-0.058,0.017-0.116,0.041-0.174	c0.203-0.544,0.399-1.081,0.555-1.642c0.093-0.306,0.156-0.618,0.197-0.937c0.012-0.116,0.017-0.231,0.006-0.347	c-0.006-0.197-0.133-0.364-0.324-0.422c-0.18-0.058-0.364-0.093-0.555-0.104c-0.532-0.023-1.063,0-1.59,0.07l-0.699,0.087	c-0.075,0.006-0.145,0-0.185-0.07c-0.041-0.07-0.023-0.139,0.017-0.208c0.046-0.064,0.104-0.122,0.174-0.162	c0.428-0.306,0.908-0.492,1.417-0.613C33.509,30.412,33.908,30.373,34.313,30.361z"/>
  </symbol>
  <symbol id="hbo">
  <path fill="#FFFFFF" fill-rule="evenodd" d="M26.386,24.141c0.623-0.044,1.639-0.755,2.026-1.186 c-0.152,0.517-0.152,2.156,0,2.675C27.981,25.004,27.01,24.249,26.386,24.141 M22.848,18.943c0.776,0,1.401,0.755,1.401,1.618 c0,0.861-0.625,1.619-1.401,1.619H20.17v-3.237L22.848,18.943L22.848,18.943z M22.848,26.211c0.776,0,1.401,0.756,1.401,1.619 c0,0.908-0.625,1.661-1.401,1.661H20.17v-3.279L22.848,26.211L22.848,26.211z M38.206,34.086c5.393,0,9.794-4.487,9.794-9.945 c0-5.544-4.401-9.836-9.794-9.836c-5.457,0-8.219,3.968-8.886,5.587c0-2.395-2.396-5.263-5.179-5.263h-8.995V34h8.369 c3.409,0,5.805-2.914,5.805-5.459C30.075,30.116,32.749,34.086,38.206,34.086 M14,34H8.805v-7.508h-3.41V34H0V14.628h5.394v7.225 h3.41v-7.225H14V34z M38.206,30.082c-3.264,0-5.919-2.666-5.919-5.941c0-3.263,2.655-5.918,5.919-5.918 c3.263,0,5.918,2.655,5.918,5.918C44.124,27.417,41.469,30.082,38.206,30.082z M38.206,20.223c-2.161,0-3.919,1.758-3.919,3.918 c0,2.173,1.758,3.941,3.919,3.941c2.16,0,3.918-1.768,3.918-3.941C42.124,21.98,40.366,20.223,38.206,20.223z" clip-rule="evenodd"/>
  </symbol>
  <symbol id="hulu">
  <path fill="#8BC34A" d="M29,15h4v18h-4V15z M43,33h-4c-2.2,0-4-1.8-4-4v-9h4v8c0,0.6,0.5,1,1,1h2c0.6,0,1-0.5,1-1v-8h4v9C47,31.2,45.2,33,43,33z M22.9,33H19c-2.2,0-4-1.8-4-4v-9h4v7.9c0,0.6,0.5,1.1,1.1,1.1h1.8c0.6,0,1.1-0.5,1.1-1.1V20h4v9C26.9,31.2,25.1,33,22.9,33z M9,20H5v-5H1v9v9h4v-8c0-0.5,0.4-1,1-1h2c0.5,0,1,0.4,1,1v8h4v-9C13,21.8,11.2,20,9,20z"/>
  </symbol>
  <symbol id="netflix">
  <path fill="#F44336" d="M5 18c.7 0 1.3 0 2 0 0 4.1 0 8.1 0 12.2-.8.1-1.6.2-2.3.3-1-2.5-2.7-6.8-2.7-6.8S2 28 2 30.8c.4 0-.2 0-2 .3 0-4.3 0-8.7 0-13 .8 0 2 0 2 0l3 7.3C5 25.4 5 20.8 5 18zM14.7 20c0-.6 0-1.4 0-2-1.9 0-3.8 0-5.7 0 0 4 0 8 0 12 1.9-.2 3.8-.4 5.7-.6 0-.6 0-1.4 0-2-1.2.1-2.4.1-3.7.4 0-1.1 0-1.7 0-2.8.9 0 2.1 0 3 0 0-.6 0-1.4 0-2-.9 0-2.1 0-3 0 0-1.1 0-1.9 0-3C11.6 20.1 14.2 20.1 14.7 20zM16 20c.1 0 1.9 0 2 0 0 3.2 0 6 0 9.2.7 0 1.3 0 2-.1 0-3.2 0-5.9 0-9.1.7 0 1.3 0 2 0 0-.6 0-1.4 0-2-2.1 0-3.9 0-6 0C16 18.6 16 19.4 16 20zM28.6 18c-1.9 0-3.7 0-5.6 0 0 3.8 0 7.2 0 11 .2 0 .4 0 .6 0 .4 0 .9 0 1.4 0 0-1.6 0-2.4 0-4 .1 0 2.4 0 2.7 0 0-.6 0-1.4 0-2-.3 0-2.6 0-2.7 0 0-1 0-2 0-3 .2 0 3.1 0 3.6 0C28.6 19.5 28.6 18.6 28.6 18zM32 27.5c0-3.3 0-6.2 0-9.5-.7 0-1.3 0-2 0 0 3.8 0 7.4 0 11.2 1.8.1 3.6.2 5.4.4 0-.6 0-1.3 0-1.9C34.3 27.6 33.1 27.5 32 27.5zM37 29.7c.7.1 1.3.1 2 .2 0-4 0-7.9 0-11.9-.7 0-1.3 0-2 0C37 22 37 25.8 37 29.7zM45.4 24.2c.9-2 1.7-4 2.6-6.1-.7 0-1.5 0-2.2 0-.5 1.3-.9 2.2-1.4 3.4-.5-1.3-.8-2.2-1.3-3.4-.7 0-1.5 0-2.2 0 .8 2 1.5 4 2.4 6.1-.9 2-1.7 4-2.6 6 .7.1 1.4.2 2.1.3.5-1.3 1-2.2 1.5-3.5.5 1.4 1 2.4 1.5 3.8.7.1 1.6.2 2.3.3C47.1 28.7 46.2 26.3 45.4 24.2z"/>
  </symbol>
  <symbol id="paramount">
  <path fill="#1e4384" d="M7.384,39.213c-0.457,0.26-2.724-5.037-2.884-5.588c-2.447-8.414,0.98-18.465,8.261-23.322	c7.373-4.919,17.142-3.745,23.989,1.822c4.688,3.812,7.883,9.209,7.891,15.241c0.006,4.21-1.326,8.393-3.757,11.826	c-0.447-0.261-0.839-0.612-1.146-1.032c-1.252-1.552-2.524-3.088-3.826-4.599c-0.654-0.759-1.27-1.559-1.999-2.25	c-0.694-0.658-1.583-0.998-2.268-1.642c-0.873-0.821-1.314-2.115-1.924-3.129c-0.781-1.297-1.586-2.632-2.266-3.984	c-0.32-0.635-0.811-1.205-1.413-1.626c-0.562-0.394-1.175-1.051-1.922-0.853c-0.379,0.101-0.701,0.351-0.99,0.616	c-0.781,0.718-1.277,1.615-1.91,2.45c-0.753,0.993-1.759,1.801-2.542,2.794c-0.724,0.918-1.449,1.837-2.173,2.755	c-1.016,1.288-2.032,2.576-3.048,3.864l-0.476,0.205c-0.196,0.084-0.37,0.218-0.502,0.387l-3.911,5	C8.283,38.503,7.933,38.901,7.384,39.213z"/><path fill="#fff" d="M25.744,9.95l-1.181-0.085c0,0-0.434-1.083-0.437-1.09c0.059,0.146-0.372,0.93-0.437,1.09 c-0.394,0.028-0.788,0.056-1.181,0.084c0.304,0.249,0.607,0.497,0.911,0.746c-0.098,0.385-0.195,0.77-0.293,1.155 c1.065-0.683,0.966-0.663,2,0.001l-0.293-1.155L25.744,9.95z"/><path fill="#010101" d="M25.126,12.352c-0.094,0-0.188-0.026-0.27-0.079l-0.17-0.11c-0.558-0.36-0.557-0.361-1.192,0.047 l-0.098,0.063c-0.171,0.111-0.395,0.106-0.562-0.016c-0.167-0.12-0.243-0.329-0.192-0.528l0.215-0.846l-0.665-0.544 c-0.159-0.13-0.223-0.343-0.161-0.538c0.062-0.195,0.236-0.334,0.441-0.349l0.892-0.063c0.075-0.152,0.223-0.455,0.263-0.587 c-0.011-0.212,0.115-0.414,0.323-0.493c0.255-0.094,0.54,0.029,0.641,0.282c0,0.001,0.001,0.003,0.001,0.004l0.318,0.795 l0.869,0.063c0.205,0.015,0.379,0.152,0.441,0.348s-0.001,0.408-0.16,0.538l-0.665,0.545l0.215,0.847 c0.05,0.199-0.026,0.409-0.193,0.528C25.331,12.32,25.229,12.352,25.126,12.352z M23.786,10.356 c0.114,0.123,0.16,0.297,0.118,0.463l-0.016,0.061c0.164-0.044,0.313-0.044,0.475-0.004l-0.015-0.057 c-0.042-0.166,0.004-0.34,0.119-0.463c-0.145-0.028-0.27-0.119-0.341-0.248C24.054,10.236,23.93,10.328,23.786,10.356z"/><path fill="#fff" d="M30.857,11.281c-0.271-0.194-0.611-0.306-0.927-0.425c-0.067-0.025-0.072-1.081-0.078-1.173 l-0.752,0.902c-0.367-0.091-0.737-0.198-1.107-0.256c0.167,0.332,0.39,0.646,0.593,0.962c-0.212,0.336-0.424,0.672-0.635,1.007 c0.38-0.1,0.76-0.201,1.14-0.301c0.258,0.303,0.51,0.611,0.762,0.919c0,0,0.078-1.189,0.079-1.189 C30.25,11.602,30.629,11.511,30.857,11.281z"/><path fill="#010101" d="M29.853,13.416c-0.147,0-0.291-0.065-0.387-0.184c-0.184-0.225-0.368-0.449-0.554-0.672 l-0.833,0.221c-0.198,0.053-0.409-0.022-0.531-0.188c-0.122-0.166-0.13-0.389-0.02-0.563l0.464-0.735 c-0.159-0.243-0.317-0.488-0.445-0.743c-0.084-0.168-0.067-0.368,0.043-0.52c0.111-0.151,0.298-0.228,0.482-0.199 c0.283,0.045,0.565,0.115,0.846,0.188l0.551-0.659c0.13-0.158,0.342-0.221,0.538-0.155c0.194,0.063,0.331,0.237,0.345,0.441 l0.005,0.185c0.006,0.288,0.013,0.507,0.021,0.656c0.255,0.097,0.528,0.212,0.77,0.384c0.119,0.085,0.195,0.219,0.208,0.364 c0.013,0.146-0.04,0.29-0.143,0.395c-0.232,0.234-0.529,0.355-0.804,0.454l-0.057,0.863c-0.014,0.204-0.151,0.38-0.347,0.443 C29.955,13.408,29.903,13.416,29.853,13.416z M29.09,11.496c0.138,0,0.271,0.057,0.367,0.16c0.038-0.239,0.088-0.345,0.176-0.393 c-0.102-0.065-0.163-0.158-0.202-0.306c-0.106,0.095-0.25,0.142-0.392,0.122c0.062,0.133,0.062,0.286,0.001,0.418 C29.057,11.497,29.073,11.496,29.09,11.496z"/><path fill="#fff" d="M35.634,14.215c-1.061,0.061-0.749-1.395-0.642-1.878c-0.24,0.15-0.481,0.3-0.721,0.45 c-0.084,0.052-0.175,0.107-0.274,0.101c-0.081-0.005-0.153-0.05-0.221-0.093c-0.228-0.145-0.445-0.296-0.689-0.388 c0.01,0.347,0.228,0.7,0.228,1.046c0,0.129-0.698,0.591-0.799,0.726c0.329,0.098,0.716,0.084,1.07,0.105 c0.13,0.333,0.243,0.694,0.43,0.983C34.58,14.334,34.523,14.279,35.634,14.215z"/><path fill="#010101" d="M34.016,15.767c-0.169,0-0.328-0.086-0.42-0.229c-0.157-0.243-0.264-0.508-0.361-0.769 c-0.274-0.01-0.576-0.027-0.861-0.111c-0.157-0.047-0.281-0.167-0.333-0.321c-0.051-0.155-0.024-0.326,0.074-0.457 c0.077-0.103,0.195-0.197,0.416-0.37c0.071-0.056,0.18-0.142,0.262-0.211c-0.018-0.07-0.042-0.148-0.068-0.229 c-0.062-0.191-0.131-0.409-0.138-0.649c-0.004-0.166,0.074-0.324,0.209-0.421c0.135-0.098,0.311-0.119,0.466-0.061 c0.263,0.099,0.482,0.24,0.695,0.378l0.058,0.038l0.711-0.441c0.171-0.107,0.389-0.103,0.554,0.016 c0.165,0.116,0.243,0.32,0.2,0.517c-0.209,0.941-0.079,1.188-0.034,1.24c0.028,0.033,0.11,0.03,0.158,0.03 c0.273-0.02,0.512,0.194,0.528,0.47c0.016,0.276-0.194,0.513-0.47,0.528c-0.76,0.044-0.76,0.044-1.096,0.607l-0.123,0.204 c-0.089,0.147-0.248,0.238-0.42,0.241C34.021,15.767,34.019,15.767,34.016,15.767z M33.698,13.796 c0.159,0.037,0.293,0.15,0.354,0.306l0.047,0.124c0.11-0.131,0.223-0.227,0.36-0.298c-0.066-0.192-0.092-0.404-0.094-0.622 c-0.106,0.05-0.246,0.09-0.397,0.081c-0.056-0.003-0.107-0.013-0.155-0.025c0.002,0.029,0.003,0.061,0.003,0.091 C33.815,13.581,33.774,13.69,33.698,13.796z"/><path fill="#fff" d="M39.085,18.41c-0.154-0.265-0.57-0.739-0.55-1.05c0.008-0.12,0.479-0.921,0.581-0.947 c-0.38,0.096-0.759,0.192-1.139,0.287c-0.231-0.272-0.446-0.585-0.727-0.791c-0.088,0.33-0.084,0.706-0.104,1.06l-1.106,0.442 c0,0,1.107,0.432,1.107,0.432c0.024,0.406,0.036,0.817,0.08,1.22C37.569,18.414,38.385,18.023,39.085,18.41z"/><path fill="#010101" d="M37.227,19.563c-0.031,0-0.062-0.003-0.094-0.009c-0.216-0.041-0.379-0.219-0.403-0.437 c-0.033-0.306-0.049-0.616-0.065-0.926l-0.807-0.315c-0.191-0.075-0.317-0.259-0.318-0.464s0.124-0.391,0.314-0.467l0.807-0.321 c0.012-0.278,0.031-0.563,0.105-0.844c0.042-0.16,0.161-0.289,0.317-0.344c0.157-0.053,0.33-0.028,0.462,0.068 c0.248,0.182,0.444,0.418,0.616,0.632l0.832-0.209c0.265-0.07,0.538,0.094,0.606,0.361c0.052,0.203-0.029,0.41-0.189,0.526 c-0.092,0.115-0.284,0.438-0.364,0.601c0.048,0.123,0.203,0.345,0.283,0.459c0.074,0.105,0.141,0.203,0.187,0.283 c0.113,0.194,0.083,0.439-0.075,0.601c-0.157,0.161-0.401,0.198-0.599,0.088c-0.177-0.097-0.368-0.118-0.572-0.057 c-0.25,0.074-0.475,0.264-0.603,0.506C37.581,19.463,37.41,19.563,37.227,19.563z M37.389,17.406 c0.148,0.083,0.247,0.236,0.256,0.409l0.008,0.15c0.106-0.054,0.217-0.099,0.331-0.133c0.046-0.015,0.092-0.026,0.138-0.036 c-0.062-0.151-0.098-0.308-0.087-0.468c0.002-0.029,0.014-0.077,0.036-0.138c-0.156,0.028-0.319-0.016-0.435-0.125 C37.608,17.21,37.517,17.335,37.389,17.406z"/><path fill="#fff" d="M41.057,23.382c-0.002-0.348-0.127-0.707-0.213-1.053c0.301-0.251,0.602-0.502,0.902-0.752 c-1.152-0.077-1.201-0.149-1.617-1.175l-0.428,1.097l-1.188,0.078l0.919,0.753l-0.301,1.15c0,0,1.008-0.636,1.008-0.636 C40.437,23.035,40.739,23.259,41.057,23.382z"/><path fill="#010101" d="M39.131,23.979c-0.104,0-0.208-0.032-0.295-0.097c-0.166-0.121-0.24-0.331-0.188-0.53l0.22-0.839 l-0.671-0.55c-0.159-0.13-0.222-0.344-0.159-0.539c0.063-0.196,0.238-0.333,0.443-0.347l0.871-0.058l0.313-0.801 c0.074-0.19,0.258-0.317,0.462-0.318c0.001,0,0.002,0,0.003,0c0.204,0,0.387,0.123,0.463,0.313 c0.327,0.807,0.327,0.807,1.187,0.864c0.204,0.014,0.379,0.15,0.442,0.345s0.001,0.407-0.155,0.538l-0.657,0.548 c0.072,0.268,0.146,0.564,0.147,0.871c0,0.165-0.08,0.319-0.216,0.413c-0.135,0.095-0.31,0.116-0.463,0.056 c-0.271-0.104-0.513-0.257-0.745-0.41l-0.736,0.464C39.316,23.954,39.223,23.979,39.131,23.979z M39.798,21.989 c0.1,0.108,0.148,0.255,0.13,0.401c0.132-0.063,0.287-0.062,0.419-0.001c-0.02-0.168,0.045-0.336,0.177-0.445l0.076-0.063 c-0.162-0.068-0.29-0.16-0.401-0.284l-0.032,0.083C40.104,21.841,39.964,21.957,39.798,21.989z"/><path fill="#fff" d="M41.479,28.921c0,0,0.085-1.181,0.085-1.181c0.328-0.132,0.685-0.246,0.969-0.435 c-0.24-0.172-0.873-0.257-1.021-0.489c-0.152-0.242-0.034-0.725-0.063-0.989c-0.197,0.229-0.395,0.637-0.712,0.738 c-0.082,0.026-1.055-0.174-1.061-0.189c0.037,0.104,0.575,0.878,0.544,0.927c0,0-0.642,1-0.642,1l1.155-0.293L41.479,28.921z"/><path fill="#010101" d="M41.479,29.421c-0.147,0-0.291-0.065-0.387-0.184l-0.544-0.665l-0.847,0.215 c-0.198,0.054-0.408-0.024-0.529-0.192c-0.12-0.166-0.126-0.39-0.015-0.562l0.487-0.76c-0.05-0.08-0.11-0.172-0.166-0.259 c-0.183-0.285-0.242-0.38-0.275-0.474c0-0.001-0.001-0.002-0.001-0.004c-0.09-0.26,0.048-0.544,0.309-0.635 c0.113-0.039,0.231-0.034,0.336,0.003c0.123,0.031,0.576,0.122,0.786,0.151c0.074-0.064,0.181-0.215,0.244-0.303 c0.066-0.093,0.129-0.181,0.192-0.254c0.13-0.151,0.335-0.213,0.526-0.151c0.19,0.059,0.327,0.224,0.35,0.422 c0.013,0.114,0.007,0.263-0.003,0.419c-0.007,0.11-0.02,0.315,0.002,0.379c0.004-0.032,0.196,0.039,0.311,0.077 c0.201,0.068,0.408,0.138,0.568,0.253c0.134,0.096,0.212,0.251,0.209,0.415s-0.086,0.317-0.224,0.408 c-0.244,0.161-0.509,0.27-0.77,0.369l-0.063,0.866c-0.015,0.204-0.152,0.379-0.348,0.44C41.58,29.413,41.529,29.421,41.479,29.421 z M40.733,27.51c0.125,0,0.247,0.047,0.34,0.133c0.027-0.139,0.112-0.26,0.234-0.332c-0.084-0.062-0.158-0.135-0.216-0.226 c-0.021-0.034-0.04-0.068-0.056-0.104c-0.047,0.023-0.096,0.043-0.147,0.06c-0.023,0.007-0.107,0.007-0.226,0.01 c0.083,0.183,0.09,0.313,0.014,0.462C40.694,27.511,40.713,27.51,40.733,27.51z"/><path fill="#fff" d="M40.129,34.203c0,0,0.445-1.097,0.445-1.097c0.347-0.023,0.719-0.016,1.039-0.116 c-0.192-0.279-0.502-0.491-0.768-0.715c0.079-0.321,0.164-0.641,0.23-0.964c-0.592,0.277-1.277,0.397-1.894-0.053 c0.34,0.628,0.004,1.521-0.666,1.767C39.579,32.67,39.83,33.456,40.129,34.203z"/><path fill="#010101" d="M40.129,34.703C40.129,34.703,40.129,34.703,40.129,34.703c-0.205,0-0.388-0.125-0.464-0.314 l-0.043-0.109c-0.337-0.852-0.454-0.947-0.949-0.779c-0.261,0.085-0.54-0.052-0.63-0.309c-0.09-0.258,0.042-0.541,0.299-0.635 c0.181-0.067,0.336-0.234,0.417-0.449c0.081-0.214,0.074-0.442-0.017-0.611c-0.111-0.205-0.065-0.461,0.11-0.614 c0.176-0.154,0.435-0.164,0.624-0.028c0.234,0.173,0.633,0.358,1.387,0.004c0.17-0.078,0.373-0.058,0.521,0.061 c0.148,0.117,0.218,0.308,0.18,0.493c-0.046,0.227-0.102,0.451-0.158,0.676c0.214,0.173,0.445,0.368,0.618,0.62 c0.09,0.131,0.112,0.296,0.061,0.446c-0.052,0.149-0.171,0.267-0.323,0.313c-0.28,0.089-0.577,0.109-0.845,0.122l-0.325,0.802 C40.516,34.58,40.333,34.703,40.129,34.703z M39.639,32.594c0.177,0.101,0.322,0.24,0.442,0.398l0.03-0.073 c0.064-0.158,0.204-0.271,0.369-0.304c-0.114-0.122-0.161-0.296-0.12-0.461l0.029-0.117c-0.214,0.026-0.41,0.023-0.588-0.001 c-0.019,0.142-0.054,0.284-0.106,0.424C39.678,32.506,39.659,32.551,39.639,32.594z"/><g><path fill="#fff" d="M20.302,10.3c-0.469,0.734-1.487-0.181-1.871-0.558c-0.025,0.108-0.053,1.09-0.109,1.113 c-0.366,0.148-0.731,0.297-1.097,0.445c0.366,0.143,0.731,0.285,1.097,0.428c0.026,0.396,0.052,0.792,0.078,1.188l0.753-0.919 l1.15,0.301l-0.636-1.008C19.668,11.29,20.296,10.31,20.302,10.3z"/><path fill="#010101" d="M18.401,13.416c-0.051,0-0.103-0.008-0.152-0.023c-0.196-0.063-0.333-0.238-0.347-0.443 l-0.058-0.871l-0.801-0.313c-0.191-0.074-0.317-0.258-0.318-0.462c-0.001-0.205,0.122-0.391,0.312-0.467l0.839-0.341 c0.01-0.121,0.018-0.267,0.025-0.398c0.014-0.228,0.032-0.422,0.043-0.471c0.042-0.176,0.175-0.315,0.348-0.365 c0.171-0.049,0.359-0.003,0.489,0.123c0.736,0.723,1.041,0.688,1.054,0.691c0.15-0.233,0.48-0.324,0.713-0.175 c0.232,0.148,0.324,0.435,0.176,0.667l-0.464,0.724l0.466,0.739c0.109,0.174,0.102,0.396-0.02,0.562 c-0.121,0.166-0.331,0.244-0.53,0.188l-0.84-0.22l-0.55,0.671C18.691,13.351,18.548,13.416,18.401,13.416z M18.567,11.292 c0.127,0.071,0.217,0.195,0.246,0.339c0.107-0.1,0.257-0.151,0.401-0.13c-0.071-0.154-0.061-0.336,0.033-0.48l0.036-0.057 c-0.138-0.055-0.28-0.13-0.428-0.227C18.818,11.052,18.751,11.198,18.567,11.292z"/></g><g><path fill="#fff" d="M15.236,12.313c-0.335,0.208-0.67,0.417-1.005,0.625c-0.324-0.204-0.646-0.405-0.976-0.598 c0.088,0.376,0.175,0.751,0.263,1.127c-0.3,0.249-0.6,0.498-0.901,0.747c1.203,0.068,1.191,0.105,1.618,1.175 c0,0,0.417-1.067,0.432-1.106c0.032-0.083,1.049-0.062,1.186-0.071c-0.305-0.254-0.61-0.508-0.915-0.761 C15.037,13.072,15.136,12.693,15.236,12.313z"/><path fill="#010101" d="M14.235,15.889c-0.205,0-0.388-0.124-0.464-0.314c-0.324-0.813-0.324-0.813-1.182-0.86 c-0.205-0.012-0.382-0.147-0.447-0.342c-0.064-0.195-0.003-0.41,0.155-0.541l0.664-0.552l-0.193-0.826 c-0.045-0.194,0.029-0.397,0.19-0.516c0.162-0.118,0.376-0.13,0.549-0.029c0.244,0.144,0.484,0.291,0.724,0.44l0.74-0.46 c0.173-0.106,0.396-0.099,0.561,0.022c0.165,0.121,0.239,0.331,0.187,0.529l-0.218,0.83l0.67,0.558 c0.157,0.131,0.219,0.345,0.156,0.54c-0.063,0.194-0.239,0.33-0.443,0.344c-0.037,0.002-0.131,0.003-0.253,0.004 c-0.128,0.001-0.404,0.002-0.601,0.011l-0.33,0.844c-0.075,0.191-0.258,0.317-0.464,0.318 C14.237,15.889,14.236,15.889,14.235,15.889z M13.784,13.896c0.155,0.065,0.278,0.155,0.388,0.281l0.03-0.078 c0.067-0.171,0.175-0.265,0.36-0.316c-0.094-0.107-0.138-0.249-0.122-0.39c-0.136,0.063-0.294,0.063-0.429-0.005 c0.028,0.174-0.038,0.351-0.174,0.464L13.784,13.896z"/></g><g><path fill="#fff" d="M11.002,15.91c-0.236,0.172-0.465,0.668-0.726,0.756c-0.082,0.027-1.034-0.164-1.04-0.183 c0.108,0.327,0.339,0.626,0.527,0.925c-0.209,0.335-0.417,0.67-0.626,1.005c0.38-0.1,0.759-0.199,1.139-0.299 c0.254,0.305,0.508,0.61,0.762,0.915c0.068-1.167,0.131-1.21,1.175-1.618c0,0-1.107-0.442-1.107-0.442 C11.086,16.615,11.091,16.24,11.002,15.91z"/><path fill="#010101" d="M11.038,19.529c-0.146,0-0.288-0.064-0.385-0.181l-0.558-0.671l-0.832,0.218 c-0.2,0.055-0.408-0.021-0.529-0.187c-0.122-0.165-0.13-0.388-0.022-0.562l0.457-0.733c-0.151-0.229-0.313-0.486-0.408-0.774 c0-0.001,0-0.002-0.001-0.003c-0.085-0.262,0.058-0.543,0.32-0.629c0.115-0.04,0.233-0.032,0.337,0.009 c0.124,0.032,0.519,0.109,0.728,0.14c0.04-0.052,0.11-0.146,0.157-0.208c0.121-0.16,0.245-0.325,0.406-0.442 c0.133-0.097,0.307-0.119,0.46-0.067c0.155,0.055,0.273,0.183,0.316,0.342c0.075,0.28,0.094,0.565,0.106,0.844l0.808,0.323 c0.191,0.076,0.315,0.261,0.314,0.466s-0.127,0.39-0.318,0.464c-0.808,0.314-0.808,0.314-0.858,1.181 c-0.012,0.205-0.147,0.383-0.343,0.446C11.143,19.521,11.09,19.529,11.038,19.529z M10.276,17.613 c0.146,0,0.288,0.064,0.385,0.181l0.065,0.079c0.068-0.164,0.16-0.292,0.286-0.403l-0.091-0.037 c-0.162-0.064-0.277-0.209-0.307-0.378c-0.055,0.034-0.115,0.063-0.179,0.085c-0.056,0.02-0.138,0.025-0.239,0.021 c0.08,0.141,0.086,0.312,0.02,0.457C10.236,17.614,10.256,17.613,10.276,17.613z"/></g><g><path fill="#fff" d="M8.123,20.402c0,0-0.445,1.097-0.445,1.097c-0.381,0.025-0.785,0.038-1.148,0.094 c0.289,0.25,0.585,0.492,0.878,0.737c0,0.349-0.2,0.806-0.285,1.149l0.991-0.636l1.007,0.635l-0.301-1.15L9.5,21.5l-0.95-0.002 L8.123,20.402z"/><path fill="#010101" d="M7.123,23.979c-0.103,0-0.205-0.031-0.292-0.094c-0.167-0.119-0.243-0.328-0.194-0.527 c0.03-0.12,0.072-0.253,0.116-0.391c0.045-0.141,0.095-0.294,0.125-0.428l-0.031-0.025c-0.217-0.18-0.433-0.36-0.646-0.544 c-0.147-0.128-0.207-0.329-0.153-0.516c0.054-0.188,0.211-0.326,0.403-0.356c0.28-0.043,0.582-0.063,0.881-0.08l0.326-0.805 c0.077-0.189,0.26-0.313,0.463-0.313c0.206,0.005,0.391,0.127,0.466,0.318l0.304,0.779L9.501,21c0.193,0,0.369,0.112,0.451,0.286 c0.083,0.175,0.057,0.382-0.065,0.531l-0.518,0.632l0.237,0.902c0.052,0.199-0.023,0.409-0.188,0.53 c-0.165,0.121-0.388,0.131-0.562,0.02l-0.738-0.465L7.393,23.9C7.311,23.953,7.217,23.979,7.123,23.979z M8.114,22.344 c0.072,0,0.143,0.016,0.21,0.046c-0.017-0.135,0.022-0.271,0.109-0.378l0.02-0.023c-0.143-0.028-0.267-0.117-0.338-0.245 c-0.072,0.128-0.196,0.219-0.34,0.246c0.085,0.093,0.134,0.214,0.134,0.341c0,0.02,0,0.039-0.001,0.059 C7.973,22.358,8.043,22.344,8.114,22.344z"/></g><g><path fill="#fff" d="M6.774,25.685c0,0-0.082,1.144-0.085,1.18c-0.006,0.083-1.017,0.41-1.09,0.439 c0.361,0.141,0.722,0.283,1.083,0.424c-0.001,0.368,0.051,0.736,0.155,1.09c-0.204-0.697,1.378-0.724,1.679-0.627 c-0.08-0.24-0.216-0.464-0.345-0.693c-0.041-0.074-0.084-0.153-0.079-0.237c0.005-0.075,0.048-0.142,0.09-0.205 c0.143-0.216,0.292-0.429,0.396-0.657c-0.345,0.058-0.709,0.124-1.059,0.197L6.774,25.685z"/><path fill="#010101" d="M6.836,29.317c-0.208,0-0.399-0.13-0.471-0.332c0,0,0,0,0,0c0-0.001,0-0.001,0-0.001l0-0.001l0,0 c-0.003-0.009-0.006-0.017-0.008-0.025c-0.084-0.289-0.139-0.585-0.162-0.884L5.416,27.77c-0.191-0.075-0.317-0.259-0.317-0.464 s0.124-0.39,0.314-0.466l0.151-0.054c0.32-0.109,0.521-0.183,0.646-0.231l0.065-0.906c0.015-0.204,0.152-0.379,0.347-0.44 c0.194-0.063,0.408,0.001,0.538,0.16l0.556,0.678c0.261-0.051,0.525-0.099,0.78-0.141c0.184-0.033,0.367,0.042,0.479,0.189 c0.112,0.146,0.135,0.344,0.058,0.512c-0.102,0.222-0.239,0.432-0.378,0.642l-0.056,0.083l-0.018-0.127l-0.41,0.294l0.483-0.162 c0.123,0.216,0.25,0.439,0.336,0.695c0.06,0.18,0.014,0.377-0.119,0.511c-0.133,0.135-0.331,0.182-0.51,0.124 c-0.199-0.05-0.807-0.006-1.027,0.104c0.023,0.234-0.123,0.459-0.357,0.527C6.93,29.311,6.883,29.317,6.836,29.317z M6.949,27.305 c0.144,0.091,0.233,0.25,0.233,0.424c0,0.013,0,0.025,0,0.038c0.166-0.049,0.341-0.08,0.513-0.099 c-0.053-0.104-0.113-0.255-0.102-0.439c0.003-0.051,0.012-0.099,0.024-0.143c-0.16,0.033-0.32-0.015-0.437-0.123 C7.156,27.107,7.087,27.211,6.949,27.305z"/></g><g><path fill="#fff" d="M7.194,31.226c0,0.341,0.129,0.707,0.214,1.05l-0.902,0.752c0,0,1.095,0.073,1.168,0.078 c0.1,0.007,0.393,0.963,0.444,1.095c0.365-0.862,0.579-1.25,1.619-1.176c-0.305-0.25-0.611-0.501-0.916-0.751 c-0.057-0.043,0.266-1.012,0.297-1.126C8.904,31.941,7.562,31.379,7.194,31.226z"/><path fill="#010101" d="M8.118,34.701c-0.003,0-0.006,0-0.009,0c-0.204-0.004-0.385-0.131-0.458-0.322L7.586,34.19 c-0.039-0.117-0.136-0.408-0.212-0.603l-0.901-0.061c-0.204-0.014-0.379-0.15-0.442-0.345c-0.063-0.194-0.001-0.407,0.155-0.538 l0.657-0.549c-0.073-0.269-0.148-0.567-0.148-0.87c0-0.167,0.084-0.323,0.223-0.416c0.14-0.094,0.316-0.11,0.47-0.045 c0.964,0.405,1.217,0.285,1.242,0.273l0.006-0.021c0.073-0.266,0.349-0.426,0.614-0.35c0.252,0.068,0.407,0.317,0.361,0.569 c0,0,0,0.001,0,0.001l0,0c-0.002,0.014-0.005,0.026-0.009,0.04l0,0l0,0c-0.007,0.026-0.015,0.052-0.023,0.077l-0.036,0.115 c-0.037,0.116-0.125,0.397-0.181,0.601l0.692,0.567c0.169,0.138,0.229,0.369,0.148,0.571c-0.081,0.202-0.271,0.33-0.5,0.314 c-0.715-0.057-0.787,0.079-1.123,0.872C8.5,34.581,8.318,34.701,8.118,34.701z M7.774,32.615c0.197,0.034,0.323,0.159,0.442,0.399 c0.104-0.116,0.223-0.214,0.362-0.292l-0.076-0.062c-0.185-0.136-0.228-0.294-0.168-0.604c-0.162-0.011-0.327-0.04-0.489-0.08 l0.047,0.178C7.934,32.32,7.888,32.493,7.774,32.615z"/></g><path fill="#1e4384" d="M18.75,33.666c-0.155-0.773,0.857-1.551,1.125-2.291c0.068-0.189,0.121-2.961,0.25-3	c-0.899,0.272-1.951,2.818-2.473,3.602c-0.696,1.046-1.305,2.147-1.912,3.245c-0.043,0.078,0.016,0.483-0.03,0.628	c-0.06,0.191-0.316,0.463-0.428,0.641c-0.236,0.374-0.598,0.829-0.738,1.25c-0.071,0.213-0.057,0.469,0.092,0.637	c0.057,0.064,0.145,0.114,0.225,0.084c0.053-0.02,0.858-0.165,0.889-0.212c1.015-1.551,1.335-2.891,2.784-4.067	c0.133-0.108,0.283-0.257,0.238-0.423C18.763,33.729,18.756,33.698,18.75,33.666z"/><path fill="#1e4384" d="M31.741,40.256c0.015-0.007,0.03-0.015,0.044-0.025c0.153-0.106,0.141-0.332,0.109-0.515	c-0.13-0.725-0.342-1.436-0.628-2.115c-0.061-0.144-0.864-2.022-0.148-1.328c1.302,1.261,2.091,3.709,3.882,4.284	c0.71,0.228,3.897,0.545,3.282-0.76c-0.235-0.498-0.655-0.97-0.988-1.406c-0.698-0.91-1.464-1.766-2.242-2.608	c-0.634-0.685-1.206-1.426-1.865-2.087c-0.595-0.596-1.44-0.932-1.996-1.508c-0.128-0.132-0.211-0.299-0.298-0.461	c-0.786-1.476-1.913-2.724-2.868-4.087c-0.958-1.367-1.539-2.925-2.634-4.209c-0.8-0.938-1.283,0.479-1.542,1.073	c-0.535,1.229-1.07,2.458-1.605,3.686c0.31,0.059,0.485,0.418,0.456,0.733c-0.028,0.314-0.204,0.593-0.366,0.864	c-0.612,1.022-1.415,2.388-1.565,3.59c-0.171,1.373,2.668,0.753,3.486,0.869c0.314,0.044,0.669,0.134,0.811,0.417	c0.144,0.286,0.001,0.627-0.139,0.915c-0.709,1.467-1.354,3.058-1.172,4.677c0.013,0.119,0.037,0.249,0.128,0.326	c0.09,0.076,0.219,0.079,0.336,0.079c0.671-0.003,1.342-0.005,2.013-0.008c0.328-0.001,0.676-0.008,0.955-0.18	s0.443-0.575,0.249-0.84c1.325,0.211,2.65,0.422,3.976,0.633C31.522,40.285,31.643,40.3,31.741,40.256z"/><path fill="#010101" d="M7.336,39.713c-0.08,0-0.158-0.012-0.219-0.037c-0.954-0.387-3.083-5.858-3.098-5.911	c-2.532-8.705,1.107-18.97,8.464-23.878c7.215-4.813,17.323-4.052,24.582,1.851c5.125,4.166,8.068,9.862,8.076,15.627	c0.006,4.301-1.361,8.604-3.849,12.116c-0.15,0.21-0.436,0.274-0.659,0.144c-0.512-0.297-0.949-0.69-1.299-1.169	c-0.427-0.528-0.859-1.084-1.292-1.64c-0.782-1.003-1.59-2.041-2.439-3.008c-0.729-0.831-1.401-1.515-2.054-2.091	c-0.309-0.272-0.652-0.505-1.016-0.75c-0.416-0.281-0.846-0.571-1.231-0.935c-0.661-0.621-1.078-1.446-1.481-2.245	c-0.172-0.342-0.342-0.68-0.529-0.99c-0.801-1.33-1.603-2.663-2.285-4.017c-0.286-0.569-0.72-1.067-1.253-1.442	c-0.112-0.078-0.226-0.167-0.343-0.257c-0.481-0.374-0.823-0.617-1.164-0.521c-0.294,0.079-0.571,0.31-0.78,0.501	c-0.502,0.462-0.882,1.011-1.284,1.592c-0.184,0.266-0.369,0.532-0.566,0.792c-1.36,1.795-2.845,3.537-4.28,5.223	c-1.163,1.364-2.364,2.774-3.488,4.199c-0.052,0.065-0.119,0.117-0.195,0.15l-0.476,0.203c-0.119,0.052-0.225,0.134-0.308,0.238	l-3.909,4.997c-0.336,0.418-0.727,0.848-1.331,1.192c0,0,0,0,0,0C7.555,39.69,7.444,39.713,7.336,39.713z M23.18,7.731	c-3.605,0-7.139,0.984-10.141,2.987C6.029,15.395,2.565,25.183,4.98,33.485c0.176,0.604,1.778,4.221,2.422,5.122	c0.336-0.242,0.575-0.521,0.777-0.773l3.906-4.994c0.188-0.237,0.429-0.423,0.699-0.539l0.359-0.153	c1.112-1.405,2.292-2.79,3.433-4.13c1.427-1.674,2.902-3.405,4.245-5.177c0.189-0.249,0.365-0.504,0.541-0.758	c0.416-0.601,0.846-1.222,1.429-1.758c0.292-0.27,0.693-0.597,1.199-0.732c0.847-0.22,1.533,0.31,2.035,0.698	c0.104,0.08,0.205,0.158,0.304,0.229c0.668,0.469,1.212,1.096,1.572,1.812c0.664,1.319,1.456,2.636,2.222,3.908	c0.225,0.373,0.407,0.732,0.591,1.098c0.364,0.721,0.74,1.466,1.272,1.967c0.328,0.308,0.706,0.563,1.107,0.834	c0.374,0.253,0.761,0.514,1.118,0.829c0.685,0.604,1.386,1.317,2.144,2.181c0.869,0.989,1.686,2.039,2.477,3.054	c0.429,0.551,0.858,1.102,1.296,1.646c0.183,0.249,0.394,0.468,0.627,0.652c2.192-3.268,3.392-7.202,3.387-11.133	c-0.007-5.463-2.816-10.877-7.707-14.854C32.545,9.351,27.804,7.731,23.18,7.731z"/><path fill="#010101" d="M14.813,38.977c-0.188,0-0.396-0.092-0.55-0.265c-0.255-0.287-0.33-0.719-0.194-1.128	c0.125-0.375,0.373-0.738,0.591-1.06c0.07-0.104,0.139-0.204,0.198-0.299c0.046-0.073,0.112-0.16,0.182-0.251	c0.06-0.078,0.172-0.224,0.194-0.278c-0.001-0.022-0.007-0.104-0.009-0.181c-0.006-0.21-0.011-0.377,0.076-0.534	c0.604-1.094,1.227-2.221,1.934-3.281c0.137-0.206,0.312-0.541,0.513-0.922c0.757-1.438,1.401-2.567,2.156-2.855	c0.023-0.01,0.048-0.018,0.075-0.026c0,0,0,0,0.001,0h0c0.264-0.081,0.543,0.068,0.623,0.334c0.039,0.129,0.023,0.261-0.033,0.372	c-0.044,0.252-0.088,1.12-0.115,1.651c-0.05,1.006-0.064,1.162-0.11,1.292c-0.126,0.349-0.363,0.672-0.591,0.984	c-0.266,0.363-0.566,0.775-0.514,1.037c0,0.001,0,0.002,0,0.002l-0.491,0.097l0.505-0.034c0.09,0.329-0.046,0.646-0.406,0.938	c-0.901,0.732-1.331,1.539-1.829,2.474c-0.251,0.472-0.511,0.959-0.852,1.479c-0.136,0.208-0.298,0.241-0.982,0.38l-0.189,0.039	C14.939,38.965,14.877,38.977,14.813,38.977z M14.748,37.977c-0.021,0.004-0.043,0.01-0.064,0.018	C14.693,37.991,14.715,37.984,14.748,37.977z M16.223,35.383c0,0.031,0.002,0.067,0.003,0.104c0.005,0.177,0.01,0.358-0.039,0.514	c-0.066,0.21-0.212,0.4-0.354,0.584c-0.049,0.063-0.096,0.123-0.128,0.174c-0.065,0.104-0.14,0.214-0.218,0.328	c-0.182,0.268-0.388,0.57-0.469,0.813c-0.002,0.006-0.004,0.012-0.005,0.018c0.132-0.026,0.294-0.059,0.412-0.087	c0.273-0.432,0.497-0.851,0.713-1.258c0.526-0.987,1.023-1.919,2.081-2.778c0.016-0.014,0.03-0.025,0.041-0.035	c-0.136-0.691,0.301-1.291,0.688-1.819c0.187-0.256,0.381-0.521,0.458-0.735c0.005-0.057,0.031-0.58,0.052-1.001	c0.008-0.167,0.016-0.32,0.023-0.463c-0.323,0.507-0.644,1.115-0.848,1.503c-0.22,0.418-0.415,0.784-0.565,1.011	C17.4,33.257,16.801,34.336,16.223,35.383z M18.287,33.881c0,0.003,0.001,0.007,0.002,0.011	C18.289,33.89,18.288,33.886,18.287,33.881z"/><path fill="#010101" d="M36.742,41.266c-0.829,0-1.643-0.151-1.896-0.232c-1.254-0.403-2.028-1.525-2.761-2.641	c0.125,0.407,0.226,0.82,0.301,1.235c0.104,0.584-0.114,0.873-0.315,1.014c-0.025,0.018-0.095,0.058-0.124,0.07	c0,0-0.001,0-0.002,0.001c-0.243,0.108-0.492,0.067-0.611,0.049l-3.362-0.536c-0.085,0.275-0.274,0.521-0.521,0.674	c-0.407,0.253-0.875,0.254-1.215,0.255l-2.012,0.008c-0.137-0.001-0.424,0.003-0.662-0.197c-0.253-0.215-0.288-0.521-0.302-0.653	c-0.194-1.731,0.472-3.402,1.219-4.949c0.154-0.318,0.163-0.434,0.143-0.473c-0.005-0.01-0.057-0.094-0.434-0.146	c-0.162-0.024-0.507-0.005-0.842,0.014c-1.041,0.055-2.219,0.119-2.788-0.492c-0.162-0.173-0.342-0.479-0.284-0.947	c0.167-1.338,1.048-2.812,1.632-3.786c0.155-0.258,0.28-0.466,0.297-0.652c0.008-0.092-0.037-0.183-0.063-0.2	c-0.149-0.028-0.272-0.122-0.343-0.256c-0.071-0.135-0.072-0.292-0.011-0.431l1.671-3.844c0.249-0.596,0.589-1.411,1.277-1.519	c0.255-0.039,0.64,0.012,1.037,0.478c0.667,0.781,1.149,1.655,1.616,2.5c0.324,0.586,0.659,1.193,1.047,1.746	c0.315,0.45,0.65,0.887,0.984,1.324c0.675,0.883,1.373,1.796,1.916,2.814c0.086,0.162,0.147,0.278,0.215,0.348	c0.241,0.25,0.563,0.459,0.904,0.681c0.371,0.24,0.754,0.489,1.087,0.822c0.396,0.397,0.762,0.822,1.127,1.248	c0.247,0.287,0.494,0.575,0.751,0.853c0.748,0.809,1.54,1.688,2.272,2.643l0.221,0.283c0.288,0.361,0.614,0.772,0.822,1.215	c0.271,0.574,0.048,0.96-0.108,1.139C38.258,41.141,37.494,41.266,36.742,41.266z M30.878,35.617c0.161,0,0.358,0.074,0.586,0.296	c0.518,0.501,0.951,1.162,1.37,1.801c0.664,1.011,1.351,2.057,2.317,2.367c0.669,0.214,2.467,0.282,2.722-0.018	c-0.204-0.391-0.479-0.737-0.745-1.073l-0.232-0.296c-0.707-0.922-1.481-1.78-2.212-2.571c-0.265-0.287-0.52-0.584-0.775-0.881	c-0.349-0.406-0.698-0.813-1.077-1.192c-0.258-0.259-0.581-0.469-0.923-0.69c-0.373-0.242-0.759-0.492-1.078-0.824	c-0.166-0.171-0.269-0.364-0.359-0.534c-0.524-0.985-1.167-1.825-1.848-2.716c-0.343-0.448-0.685-0.896-1.008-1.357	c-0.419-0.597-0.767-1.228-1.104-1.837c-0.463-0.838-0.9-1.63-1.501-2.335c-0.102-0.119-0.157-0.14-0.158-0.14	c-0.122,0.076-0.386,0.709-0.473,0.917l-1.506,3.465c0.241,0.257,0.355,0.632,0.325,0.971c-0.038,0.414-0.237,0.747-0.413,1.04	c-0.562,0.939-1.379,2.304-1.52,3.432c-0.013,0.104,0.011,0.13,0.023,0.143c0.251,0.27,1.391,0.21,2.003,0.175	c0.417-0.022,0.776-0.042,1.035-0.005c0.247,0.035,0.905,0.127,1.187,0.686c0.267,0.528-0.004,1.09-0.135,1.359	c-0.676,1.398-1.28,2.894-1.13,4.361l1.983-0.005c0.234-0.001,0.525-0.002,0.693-0.105c0.061-0.037,0.099-0.118,0.097-0.148	c-0.12-0.163-0.123-0.368-0.018-0.541c0.106-0.174,0.315-0.245,0.512-0.22l3.877,0.618c-0.124-0.67-0.322-1.331-0.588-1.963	c-0.57-1.349-0.622-1.813-0.232-2.079C30.652,35.661,30.755,35.617,30.878,35.617z M31.536,39.8l0.206,0.456L31.536,39.8z"/>
  </symbol>
</svg>




