<?xml version="1.0" encoding="UTF-8"?>
<svg width="100pt" height="100pt" version="1.1" viewBox="0 0 100 100" xmlns="http://www.w3.org/2000/svg">
 <path d="m87 81.301-17.898-17.902c9-11.699 8.1016-28.602-2.6992-39.301-5.8984-5.8984-13.5-8.8008-21.199-8.8008s-15.301 2.8984-21.199 8.8008c-11.699 11.699-11.699 30.699 0 42.398 5.8984 5.8984 13.5 8.8008 21.199 8.8008 6.3984 0 12.801-2 18.102-6.1016l17.996 17.805c0.80078 0.80078 1.8008 1.1992 2.8984 1.1992 1 0 2.1016-0.39844 2.8984-1.1992 1.5039-1.5 1.5039-4.1016-0.097656-5.6992zm-41.699-14.102c-5.8984 0-11.301-2.3008-15.5-6.3984-8.5-8.5-8.5-22.398 0-31 4.1016-4.1016 9.6016-6.3984 15.5-6.3984 5.8984 0 11.301 2.3008 15.5 6.3984 4.1992 4.1016 6.3984 9.6016 6.3984 15.5 0 5.8984-2.3008 11.301-6.3984 15.5-4.1016 4.1992-9.6992 6.3984-15.5 6.3984z" fill="#fff"/>
</svg>
