<?xml version="1.0" encoding="UTF-8"?>
<svg width="100pt" height="100pt" version="1.1" viewBox="0 0 100 100" xmlns="http://www.w3.org/2000/svg">
 <path d="m48.43 24.734c0.29297-0.59766 0.90234-0.97656 1.5703-0.97656s1.2734 0.37891 1.5703 0.97656l7.2578 14.703c0.1875 0.38672 0.55859 0.65234 0.98828 0.71875l16.223 2.3555c0.66016 0.097656 1.207 0.55859 1.4102 1.1914 0.20703 0.63672 0.035156 1.332-0.44141 1.7969l-11.738 11.441c-0.30859 0.30469-0.44922 0.73828-0.37891 1.1641l2.7695 16.156c0.11328 0.66016-0.15625 1.3203-0.69531 1.7148-0.53906 0.39063-1.2539 0.44141-1.8438 0.13281l-14.512-7.6289c-0.38281-0.19922-0.83594-0.19922-1.2188 0l-14.512 7.6289c-0.58984 0.30859-1.3047 0.25781-1.8438-0.13281-0.53906-0.39453-0.80859-1.0547-0.69922-1.7148l2.7695-16.156c0.074219-0.42578-0.066407-0.85938-0.375-1.1641l-11.738-11.441c-0.47656-0.46484-0.64844-1.1602-0.44531-1.7969 0.20703-0.63281 0.75391-1.0938 1.4141-1.1914 0 0 16.223-2.3555 16.223-2.3555 0.42969-0.066406 0.79688-0.33203 0.98828-0.71875l7.2578-14.703z" fill="#ffc200" fill-rule="evenodd"/>
</svg>
